<svg xmlns="http://www.w3.org/2000/svg" width="73" height="72" viewBox="0 0 73 72" fill="none">
    <g opacity="0.5" clip-path="url(#clip0_3694_66283)">
        <path d="M16.9622 24.5168C16.4137 23.9684 15.5222 23.9684 14.9739 24.5168C14.424 25.0666 14.424 25.9568 14.9739 26.5052C15.5223 27.0551 16.4139 27.0551 16.9622 26.5052C17.5119 25.9568 17.5119 25.0666 16.9622 24.5168ZM36.006 62.9599C36.626 62.1201 36.9611 61.1083 36.9611 60.0444C36.9611 57.3307 34.7533 55.1227 32.0394 55.1227H8.134C6.81873 55.1227 5.58278 55.6346 4.65367 56.564C3.72414 57.4932 3.21226 58.7292 3.21226 60.0444C3.21131 61.0933 3.54727 62.1147 4.17062 62.9582C1.93145 64.1355 0.399902 66.4839 0.399902 69.1846V70.5909C0.399902 71.3676 1.02962 71.9971 1.80615 71.9971H38.3672C39.1438 71.9971 39.7735 71.3676 39.7735 70.5909V69.1846C39.7735 66.4852 38.2435 64.1377 36.006 62.9599ZM6.64225 58.5524C6.83771 58.3559 7.0702 58.2002 7.32626 58.0942C7.58232 57.9882 7.85687 57.9341 8.134 57.9349H32.0394C33.2025 57.9349 34.1486 58.8812 34.1486 60.0442C34.1486 60.6081 33.9293 61.1378 33.531 61.536C33.3356 61.7325 33.1031 61.8882 32.847 61.9942C32.5909 62.1002 32.3164 62.1544 32.0393 62.1535H8.134C6.97089 62.1535 6.02476 61.2073 6.02476 60.0443C6.02476 59.4805 6.244 58.9507 6.64225 58.5524ZM3.21226 69.1846C3.21226 66.8586 5.10479 64.966 7.43087 64.966H32.7425C35.0686 64.966 36.9611 66.8586 36.9611 69.1846H3.21226Z" fill="#AAA8B8"/>
        <path d="M71.0911 59.0798C70.6135 58.3397 70.0437 57.6852 69.3973 57.1345L62.8266 51.4036C62.7745 51.3252 62.7147 51.2521 62.6481 51.1855C62.537 51.075 62.4082 50.9838 62.267 50.9158L58.2934 47.4501L39.901 31.4061C40.6539 30.619 41.0685 29.5898 41.0685 28.4953C41.0685 27.3677 40.6296 26.3081 39.8318 25.5105C39.4931 25.1721 39.0987 24.8944 38.6659 24.6897L40.3675 22.9881C40.8416 23.1146 41.3301 23.1788 41.8208 23.1792C43.261 23.1791 44.7013 22.6309 45.7976 21.5346C46.8604 20.4719 47.4457 19.0593 47.4457 17.557C47.4457 16.0547 46.8604 14.6422 45.7977 13.5795L33.866 1.64798C32.8033 0.585281 31.3905 0 29.8878 0C28.3858 0 26.9735 0.585281 25.9109 1.64798C24.4423 3.11667 23.9588 5.202 24.4574 7.07822L7.48049 24.055C7.00552 23.9286 6.51611 23.8645 6.0246 23.8645C4.5216 23.8645 3.10958 24.4493 2.04772 25.5111C-0.145465 27.7043 -0.145465 31.2729 2.04772 33.4662L13.9793 45.398C15.0761 46.4946 16.5165 47.0429 17.9569 47.0429C19.3975 47.0429 20.8379 46.4946 21.9346 45.398C23.4033 43.9291 23.8868 41.844 23.3881 39.9677L25.0862 38.2696C25.2932 38.7012 25.5721 39.0945 25.9111 39.4327C26.7079 40.2294 27.7672 40.6683 28.8944 40.6683C29.9878 40.6683 31.0166 40.2545 31.8048 39.5024L51.3947 62.01C51.4487 62.0944 51.5117 62.1747 51.5854 62.2484C51.6106 62.2735 51.6373 62.2965 51.6639 62.3192L57.5014 69.0262C57.6482 69.1994 57.8021 69.3664 57.9626 69.527C59.5659 71.1297 61.6836 71.9994 63.9068 71.9994C64.2988 71.9994 64.6943 71.9724 65.0905 71.9176C67.7383 71.5511 70.0267 69.9671 71.3685 67.5712C72.8385 64.9453 72.7291 61.6115 71.0911 59.0798ZM27.8998 3.6367C28.1602 3.3747 28.4701 3.16695 28.8113 3.02548C29.1526 2.88401 29.5185 2.81162 29.888 2.8125C30.2576 2.8115 30.6237 2.88384 30.9652 3.02531C31.3067 3.16679 31.6168 3.3746 31.8774 3.6367L43.8091 15.5683C44.0712 15.8289 44.2789 16.1388 44.4204 16.4802C44.5618 16.8216 44.6342 17.1876 44.6332 17.5572C44.6342 17.9267 44.5618 18.2928 44.4203 18.6342C44.2789 18.9756 44.0711 19.2855 43.809 19.546C42.7128 20.6425 40.9288 20.6425 39.8327 19.546L27.9005 7.61386L27.8998 7.61316C26.8033 6.51684 26.8033 4.73302 27.8998 3.6367ZM19.9459 43.4093C18.8493 44.5058 17.0646 44.506 15.9681 43.4093L4.03644 31.4776C2.93971 30.3809 2.93971 28.5967 4.03644 27.4998C4.56688 26.9692 5.2731 26.677 6.0246 26.677C6.77596 26.677 7.48175 26.9691 8.01205 27.4992L19.9458 39.4329C21.0424 40.5291 21.0424 42.3131 19.9459 43.4093ZM25.8665 33.5121L21.9345 37.4442L10.0016 25.5113L25.9109 9.60174L37.8437 21.5346L33.9045 25.4739C33.8917 25.486 33.8792 25.4978 33.8657 25.5112L25.915 33.462C25.8986 33.4782 25.8827 33.495 25.8665 33.5121ZM30.8877 36.4456L30.8794 36.4539L29.8891 37.4442C29.7587 37.5752 29.6037 37.6791 29.4329 37.7497C29.2622 37.8204 29.0791 37.8565 28.8943 37.856C28.7095 37.8565 28.5264 37.8204 28.3557 37.7497C28.185 37.679 28.03 37.5751 27.8997 37.4441C27.7685 37.3137 27.6645 37.1585 27.5938 36.9877C27.523 36.8168 27.4868 36.6336 27.4873 36.4486C27.4873 36.0804 27.6278 35.7341 27.8828 35.4728L35.8704 27.4852C36.4179 26.9528 37.303 26.9594 37.844 27.4998C37.9751 27.6302 38.079 27.7854 38.1498 27.9562C38.2205 28.1271 38.2567 28.3103 38.2561 28.4953C38.2567 28.68 38.2206 28.8631 38.1498 29.0337C38.079 29.2044 37.975 29.3593 37.8438 29.4893L36.8593 30.4739C36.8525 30.4805 36.8458 30.4872 36.8392 30.494L30.8877 36.4456ZM33.7997 37.5109L37.9096 33.401L55.3108 48.5793L48.9611 54.9293L33.7997 37.5109ZM50.8118 57.0558L57.4351 50.4324L59.5596 52.2854L52.6626 59.1825L50.8118 57.0558ZM68.9148 66.1973C68.0072 67.8177 66.4728 68.8871 64.705 69.1318C62.9413 69.3759 61.2084 68.795 59.9509 67.5381C59.8436 67.4309 59.7408 67.3192 59.6428 67.2033L59.6292 67.1874L54.5132 61.309L61.6838 54.1382L67.5549 59.2594L67.5684 59.2711C68.0079 59.6447 68.3978 60.0934 68.7287 60.6061C69.7921 62.2493 69.8667 64.4965 68.9148 66.1973Z" fill="#AAA8B8"/>
        <path d="M26.9056 14.572C26.3563 14.0229 25.4661 14.0229 24.9169 14.572L18.9504 20.5384C18.4013 21.0876 18.4013 21.978 18.9504 22.527C19.0809 22.6578 19.2359 22.7615 19.4065 22.8322C19.5771 22.9029 19.7601 22.9392 19.9448 22.9389C20.1295 22.9391 20.3124 22.9029 20.4831 22.8322C20.6537 22.7615 20.8087 22.6578 20.9391 22.527L26.9056 16.5606C27.4547 16.0116 27.4547 15.1213 26.9056 14.572Z" fill="#AAA8B8"/>
    </g>
    <defs>
        <clipPath id="clip0_3694_66283">
            <rect width="72" height="72" fill="white" transform="translate(0.399902)"/>
        </clipPath>
    </defs>
</svg>
