<svg xmlns="http://www.w3.org/2000/svg" width="72" height="72" viewBox="0 0 72 72" fill="none">
    <g opacity="0.5" clip-path="url(#clip0_3694_66176)">
        <path d="M70.6366 46.5764L66.6049 37.3608C64.7646 33.1542 61.0532 30.1355 56.595 29.176L53.4241 20.9323C53.4275 20.7231 53.3976 20.5146 53.3354 20.3148C53.2235 19.9505 52.9433 19.4389 52.2443 19.0725C50.5095 18.1634 47.0855 18.6279 44.1204 19.4506L38.5062 8.22235C38.5304 8.19717 38.5549 8.17242 38.5784 8.14669L42.362 10.6694C43.2845 11.2855 44.3692 11.6139 45.4785 11.613C48.5765 11.613 51.0969 9.09267 51.0969 5.99456V5.61811C51.0968 2.52028 48.5765 2.16656e-06 45.4784 2.16656e-06C44.3691 -0.000973253 43.2844 0.327433 42.3619 0.943596L38.5782 3.46599C37.9405 2.76413 37.0208 2.32271 35.9999 2.32271C34.9789 2.32271 34.0592 2.76413 33.4214 3.46613L29.638 0.943596C28.7155 0.327437 27.6309 -0.000970778 26.5216 2.16656e-06C23.4236 2.16656e-06 20.9032 2.52028 20.9032 5.61839V5.99485C20.9032 9.09267 23.4235 11.613 26.5216 11.613C27.631 11.6139 28.7156 11.2855 29.6381 10.6694L33.4218 8.14697C33.4451 8.17285 33.4697 8.1976 33.4938 8.22263L27.8796 19.4508C24.9145 18.6282 21.49 18.1634 19.7557 19.0728C19.0568 19.4392 18.7764 19.9505 18.6646 20.315C18.6026 20.5148 18.5726 20.7234 18.5759 20.9326L15.405 29.1763C10.9467 30.1358 7.23544 33.1545 5.39508 37.3611L1.36336 46.5764C0.458719 48.6442 0 50.8368 0 53.0938C0 59.3844 3.68339 65.1682 9.38391 67.8284L12.0714 69.0826C16.1612 70.9912 20.7087 72 25.2219 72C30.5246 72 34.8387 67.6859 34.8387 62.3832C34.8387 61.2593 34.6369 60.1346 34.2513 59.0784C34.9387 58.5844 35.5311 57.9701 36 57.2653C36.4689 57.9701 37.0613 58.5844 37.7487 59.0784C37.3631 60.1349 37.1613 61.2595 37.1613 62.3832C37.1613 67.6859 41.4754 72 46.7781 72C51.2913 72 55.8387 70.9912 59.9286 69.0826L62.6161 67.8284C68.3166 65.1682 72 59.3845 72 53.0938C72 50.8368 71.5413 48.6442 70.6366 46.5764ZM54.354 29.8198C52.124 31.5485 49.6058 32.8691 46.9159 33.7206L46.5448 32.6074C46.483 32.4222 46.4515 32.2282 46.4515 32.033C46.4515 31.341 46.8359 30.719 47.455 30.4093L53.4315 27.4212L54.354 29.8198ZM18.5684 27.4215L24.5448 30.4096C24.8471 30.5594 25.1014 30.7909 25.2788 31.0779C25.4561 31.3649 25.5495 31.6959 25.5483 32.0333C25.5483 32.2286 25.517 32.4219 25.4552 32.6073L25.0841 33.7208C22.3942 32.8692 19.876 31.5486 17.646 29.82L18.5684 27.4215ZM25.5836 28.3321L19.4061 25.2435L20.1158 23.3983C22.318 25.2153 26.1712 26.4859 26.7976 26.6847C28.8743 27.3438 31.3429 27.8762 33.3451 27.8762C33.573 27.8762 33.7932 27.8679 34.0075 27.8536L31.6817 34.8307C30.2197 34.7925 28.7644 34.6198 27.3341 34.3148L27.6587 33.3412C27.7993 32.9194 27.871 32.4776 27.8709 32.033C27.871 30.4557 26.9945 29.0377 25.5836 28.3321ZM36 9.29039C36.1455 9.29039 36.2888 9.28041 36.4299 9.26297L41.8845 20.172C40.287 20.7617 37.5526 21.915 36.0001 23.3824C34.4476 21.915 31.7133 20.7617 30.1157 20.172L35.5703 9.26297C35.7112 9.28027 35.8545 9.29039 36 9.29039ZM36 29.2209L38.163 35.7092C37.2775 36.6959 36.5481 37.8122 36 39.0194C35.452 37.8122 34.7225 36.6959 33.837 35.7092L36 29.2209ZM37.9925 27.8536C38.207 27.8679 38.4272 27.8762 38.6549 27.8762C40.6571 27.8762 43.126 27.344 45.2025 26.6847C45.8288 26.4859 49.6818 25.2152 51.8842 23.3983L52.5938 25.2435L46.4162 28.3321C45.0053 29.0377 44.129 30.4557 44.129 32.033C44.129 32.4783 44.2004 32.9185 44.3413 33.3416L44.6657 34.3148C43.2354 34.6196 41.7801 34.7923 40.3182 34.8307L37.9925 27.8536ZM50.9804 21.0445C50.4266 21.7877 48.1544 23.311 44.4998 24.471C40.7152 25.6724 38.1223 25.6835 37.2776 25.4071C37.8314 24.6639 40.1036 23.1407 43.7581 21.9807C47.5431 20.7793 50.136 20.7682 50.9804 21.0445ZM43.6503 2.87606C44.1914 2.5146 44.8277 2.32195 45.4784 2.32256C47.2957 2.32256 48.7741 3.8011 48.7741 5.61825V5.99471C48.7741 7.81186 47.2956 9.29025 45.4784 9.29025C44.8277 9.29081 44.1914 9.09818 43.6503 8.73675L39.48 5.9566C39.482 5.90667 39.4838 5.85675 39.4838 5.80641C39.4838 5.75606 39.4822 5.70614 39.48 5.65622L43.6503 2.87606ZM36 4.64513C36.6403 4.64513 37.1613 5.16614 37.1613 5.80641C37.1613 6.44667 36.6403 6.96769 36 6.96769C35.3597 6.96769 34.8387 6.44667 34.8387 5.80641C34.8387 5.16614 35.3597 4.64513 36 4.64513ZM28.3497 8.73689C27.8086 9.0983 27.1723 9.29094 26.5216 9.29039C24.7043 9.29039 23.2259 7.81186 23.2259 5.99471V5.61825C23.2259 3.8011 24.7044 2.32271 26.5216 2.32271C27.1723 2.32214 27.8086 2.51478 28.3497 2.87621L32.52 5.65636C32.518 5.70628 32.5162 5.75621 32.5162 5.80655C32.5162 5.85689 32.5178 5.90681 32.52 5.95674L28.3497 8.73689ZM28.2417 21.9807C31.8964 23.1408 34.1685 24.6639 34.7224 25.4071C33.878 25.6833 31.2847 25.6724 27.5003 24.471C23.8456 23.3108 21.5736 21.7877 21.0196 21.0445C21.8641 20.7682 24.4572 20.7793 28.2417 21.9807ZM30.1936 58.0645C27.6323 58.0645 25.5485 55.9807 25.5485 53.4194V50.1449C25.5471 49.0634 25.2954 47.9968 24.813 47.0288L24.2647 45.9322L22.1873 46.9709L22.7354 48.0675C23.0572 48.7128 23.225 49.4239 23.2259 50.1451V51.7524C21.9932 52.8296 20.4324 53.4194 18.78 53.4194H18.5808V55.7419H18.78C20.3984 55.7419 21.951 55.3198 23.3156 54.5313C23.8499 57.8465 26.7301 60.3871 30.1936 60.3871C30.855 60.3869 31.513 60.2924 32.1477 60.1062C32.3883 60.8401 32.5162 61.6115 32.5162 62.3832C32.5162 66.4052 29.244 69.6774 25.2219 69.6774C21.0457 69.6774 16.838 68.744 13.0535 66.9779L10.366 65.7236C5.47987 63.4434 2.3227 58.4859 2.3227 53.0937C2.3227 51.159 2.71575 49.2795 3.4913 47.5073L7.52302 38.2918C9.06905 34.758 12.1936 32.2265 15.9443 31.4355C20.5035 35.0734 26.1792 37.0953 32.0162 37.1581C33.8392 39.1425 34.8389 41.6994 34.8389 44.4108V53.4194C34.8387 55.9807 32.7549 58.0645 30.1936 58.0645ZM61.634 65.7238L58.9465 66.978C55.162 68.7438 50.9543 69.6774 46.7781 69.6774C42.7561 69.6774 39.4838 66.4052 39.4838 62.3832C39.4838 61.6116 39.6115 60.8401 39.8523 60.1062C40.487 60.2924 41.145 60.3869 41.8064 60.3871C45.27 60.3871 48.1503 57.8464 48.6842 54.5313C50.0489 55.3198 51.6015 55.7419 53.2198 55.7419H53.4192V53.4194H53.22C51.5676 53.4194 50.0068 52.8296 48.7741 51.7524V50.1451C48.7741 49.4279 48.9437 48.7094 49.2645 48.0676L49.8128 46.9709L47.7353 45.9322L47.1869 47.0289C46.7045 47.9969 46.4528 49.0634 46.4515 50.1449V53.4194C46.4515 55.9807 44.3678 58.0645 41.8064 58.0645C39.2451 58.0645 37.1613 55.9807 37.1613 53.4194V44.4108C37.1613 41.6994 38.161 39.1426 39.984 37.1582C45.821 37.0955 51.4965 35.0737 56.0559 31.4356C59.8068 32.2266 62.9314 34.758 64.4773 38.2919L68.509 47.5075C69.282 49.2683 69.68 51.1708 69.6776 53.0938C69.6774 58.4859 66.5201 63.4435 61.634 65.7238Z" fill="#AAA8B8"/>
    </g>
    <defs>
        <clipPath id="clip0_3694_66176">
            <rect width="72" height="72" fill="white"/>
        </clipPath>
    </defs>
</svg>
