<svg xmlns="http://www.w3.org/2000/svg" width="73" height="72" viewBox="0 0 73 72" fill="none">
    <g opacity="0.5">
        <path d="M31.7002 41.625C29.2252 41.625 27.2002 43.65 27.2002 46.125V48.375C27.2002 50.85 29.2252 52.875 31.7002 52.875C34.1752 52.875 36.2002 50.85 36.2002 48.375V46.125C36.2002 43.65 34.1752 41.625 31.7002 41.625ZM33.9502 48.375C33.9502 49.6125 32.9377 50.625 31.7002 50.625C30.4627 50.625 29.4502 49.6125 29.4502 48.375V46.125C29.4502 44.8875 30.4627 43.875 31.7002 43.875C32.9377 43.875 33.9502 44.8875 33.9502 46.125V48.375ZM18.2002 57.375C18.8752 57.375 19.3252 56.925 19.3252 56.25C19.3252 55.575 18.8752 55.125 18.2002 55.125C16.9627 55.125 15.9502 54.1125 15.9502 52.875V50.625C15.9502 50.175 16.0627 49.725 16.4002 49.3875C16.7377 48.825 16.6252 48.15 16.0627 47.8125C15.5002 47.475 14.8252 47.5875 14.4877 48.15C13.9252 48.825 13.7002 49.725 13.7002 50.625V52.875C13.7002 55.35 15.7252 57.375 18.2002 57.375ZM54.2002 57.375C56.6752 57.375 58.7002 55.35 58.7002 52.875V50.625C58.7002 48.15 56.6752 46.125 54.2002 46.125C51.7252 46.125 49.7002 48.15 49.7002 50.625V52.875C49.7002 55.35 51.7252 57.375 54.2002 57.375ZM51.9502 50.625C51.9502 49.3875 52.9627 48.375 54.2002 48.375C55.4377 48.375 56.4502 49.3875 56.4502 50.625V52.875C56.4502 54.1125 55.4377 55.125 54.2002 55.125C52.9627 55.125 51.9502 54.1125 51.9502 52.875V50.625Z" fill="#AAA8B8"/>
        <path d="M67.7004 48.7119C68.3754 48.7119 68.8254 48.2619 68.8254 47.5869V42.8619C68.8254 41.1744 67.7004 39.7119 66.1254 39.3744C63.9879 39.0369 62.0754 40.7244 62.0754 42.7494V49.2744L57.9129 59.6244H50.4879L47.6754 52.4244C47.4504 51.8619 46.7754 51.5244 46.2129 51.7494C45.6504 51.9744 45.3129 52.6494 45.5379 53.2119L48.6879 61.0869C48.9129 61.5369 49.2504 61.7619 49.7004 61.7619H58.7004C59.1504 61.7619 59.6004 61.5369 59.7129 61.0869L64.3254 49.7244V42.7494C64.3254 42.0744 64.7754 41.6244 65.4504 41.6244C66.1254 41.6244 66.5754 42.0744 66.5754 42.7494V47.5869C66.5754 48.1494 67.0254 48.7119 67.7004 48.7119ZM51.0504 17.2119C51.2754 17.5494 51.8379 17.9994 52.6254 17.4369C53.0754 17.0994 53.1879 16.3119 52.8504 15.8619C50.2629 12.5994 46.5504 10.4619 42.3879 9.78689C41.8254 9.67439 41.1504 10.1244 41.1504 10.6869C41.1504 11.2494 41.4879 11.9244 42.0504 11.9244C45.6504 12.4869 48.8004 14.3994 51.0504 17.2119ZM57.9129 22.2744C58.0254 22.2744 58.9254 22.6119 59.3754 21.5994C59.6004 21.0369 59.3754 20.3619 58.7004 20.1369C58.0254 19.9119 57.3504 19.5744 56.7879 19.2369C56.2254 18.8994 55.5504 19.1244 55.2129 19.6869C54.8754 20.2494 55.1004 20.9244 55.6629 21.2619C56.4504 21.5994 57.1254 22.0494 57.9129 22.2744Z" fill="#AAA8B8"/>
        <path d="M69.9502 68.6242H63.2002L64.2127 63.3367L68.2627 53.0992C68.6002 52.3117 68.7127 51.5242 68.7127 50.7367C68.7127 50.0617 68.2627 49.6117 67.5877 49.6117C66.9127 49.6117 66.4627 50.0617 66.4627 50.7367C66.4627 51.2992 66.3502 51.7492 66.1252 52.3117L62.0752 62.6617L60.9502 68.6242H58.9252C58.2502 68.6242 57.8002 69.0742 57.8002 69.7492C57.8002 70.4242 58.2502 70.8742 58.9252 70.8742H69.9502C70.6252 70.8742 71.0752 70.4242 71.0752 69.7492C71.0752 69.0742 70.6252 68.6242 69.9502 68.6242ZM54.6502 68.6242H47.4502L46.3252 62.6617L44.8627 59.0617C44.6377 58.4992 43.9627 58.1617 43.4002 58.3867C42.8377 58.6117 42.5002 59.2867 42.7252 59.8492L44.0752 63.2242L45.2002 68.6242H39.8002L41.7127 58.8367L45.7627 48.5992C46.1002 47.8117 46.2127 47.0242 46.2127 46.2367V38.3617C46.2127 36.6742 45.0877 35.2117 43.5127 34.8742C41.4877 34.5367 39.5752 36.2242 39.5752 38.2492V44.7742L35.4127 55.1242H27.9877L23.8252 44.7742V38.2492C23.8252 37.2367 23.3752 36.3367 22.7002 35.7742L30.1252 22.9492L35.4127 23.7367C39.0127 24.2992 42.1627 26.0992 44.4127 28.9117C44.6377 29.2492 45.2002 29.5867 45.9877 29.1367C46.5502 28.7992 46.5502 28.0117 46.2127 27.5617C43.6252 24.2992 39.9127 22.1617 35.7502 21.4867L31.3627 20.8117L39.1252 7.3117L44.4127 8.0992C48.0127 8.6617 51.1627 10.4617 53.4127 13.2742C56.0002 16.5367 59.7127 18.6742 63.8752 19.3492L68.2627 20.0242L60.5002 33.5242L55.2127 32.7367C52.8502 32.3992 50.4877 31.3867 48.5752 29.9242C48.1252 29.5867 47.3377 29.5867 47.0002 30.1492C46.6627 30.5992 46.6627 31.3867 47.2252 31.7242C49.4752 33.4117 52.0627 34.5367 54.8752 34.9867L60.8377 35.8867C60.8377 35.8867 61.6252 36.1117 61.9627 35.3242L70.9627 19.6867C71.4127 18.4492 70.5127 18.1117 70.1752 17.9992L64.2127 17.0992C60.6127 16.5367 57.4627 14.7367 55.2127 11.9242C52.6252 8.6617 48.9127 6.5242 44.7502 5.8492L40.3627 5.1742L41.8252 2.6992C42.0502 2.2492 41.8252 1.5742 41.2627 1.2367C40.7002 0.899198 40.0252 1.1242 39.8002 1.6867L20.5627 34.8742C20.5627 34.8742 17.4127 34.5367 17.0752 38.2492V46.2367C17.0752 47.0242 17.1877 47.8117 17.5252 48.5992L21.5752 58.8367L23.4877 68.6242H17.0752C16.4002 68.6242 15.9502 69.0742 15.9502 69.7492C15.9502 70.4242 16.4002 70.8742 17.0752 70.8742H54.6502C55.3252 70.8742 55.7752 70.4242 55.7752 69.7492C55.7752 69.0742 55.3252 68.6242 54.6502 68.6242ZM39.5752 58.1617L37.5502 68.6242H25.8502L23.8252 58.1617L19.6627 47.6992C19.4377 47.2492 19.3252 46.7992 19.3252 46.2367V38.2492C19.3252 37.5742 19.7752 37.1242 20.4502 37.1242C21.1252 37.1242 21.5752 37.5742 21.5752 38.2492V45.2242L26.1877 56.6992C26.4127 57.1492 26.7502 57.3742 27.2002 57.3742H36.2002C36.6502 57.3742 37.1002 57.1492 37.2127 56.6992L41.8252 45.2242V38.2492C41.8252 37.5742 42.2752 37.1242 42.9502 37.1242C43.6252 37.1242 44.0752 37.5742 44.0752 38.2492V46.2367C44.0752 46.7992 43.9627 47.2492 43.7377 47.8117L39.5752 58.1617Z" fill="#AAA8B8"/>
        <path d="M12.9127 68.6252H11.4502L10.3252 62.6628L6.1627 52.2003C5.9377 51.7503 5.8252 51.3002 5.8252 50.7377V42.7502C5.8252 42.0752 6.2752 41.6252 6.9502 41.6252C7.6252 41.6252 8.0752 42.0752 8.0752 42.7502V49.7253L12.6877 61.2003C12.9127 61.6503 13.2502 61.8752 13.7002 61.8752H19.7752C20.4502 61.8752 20.9002 61.4252 20.9002 60.7502C20.9002 60.0752 20.4502 59.6252 19.7752 59.6252H14.4877L10.3252 49.2752V42.8627C10.3252 41.1752 9.2002 39.7128 7.6252 39.3753C5.4877 39.0378 3.5752 40.7253 3.5752 42.7502V50.7377C3.5752 51.5252 3.6877 52.3128 4.0252 53.1003L8.0752 63.3377L9.2002 68.6252H2.4502C1.7752 68.6252 1.3252 69.0752 1.3252 69.7502C1.3252 70.4252 1.7752 70.8752 2.4502 70.8752H12.9127C13.5877 70.8752 14.0377 70.4252 14.0377 69.7502C14.0377 69.0752 13.5877 68.6252 12.9127 68.6252Z" fill="#AAA8B8"/>
    </g>
</svg>
