<svg xmlns="http://www.w3.org/2000/svg" width="72" height="72" viewBox="0 0 72 72" fill="none">
    <g opacity="0.5">
        <path d="M64.8 12.9601C64.7953 12.664 64.6995 12.3766 64.5256 12.1369C64.3516 11.8973 64.1081 11.7171 63.828 11.6209L36.468 2.26087C36.1654 2.15263 35.8346 2.15263 35.532 2.26087L8.172 11.6209C7.89195 11.7171 7.64836 11.8973 7.47443 12.1369C7.30049 12.3766 7.20467 12.664 7.2 12.9601L7.128 17.2081C6.912 30.2905 7.9704 39.6793 10.3752 45.9217C12.1783 50.6219 14.8973 54.9171 18.3744 58.5577C22.5339 62.7878 27.463 66.1847 32.8968 68.5657L35.4024 69.7105C35.59 69.796 35.7938 69.8403 36 69.8403C36.2062 69.8403 36.41 69.796 36.5976 69.7105L39.1032 68.5657C44.537 66.1847 49.4661 62.7878 53.6256 58.5577C57.106 54.9156 59.8276 50.6179 61.632 45.9145C64.0368 39.6721 65.0952 30.2833 64.8792 17.2009L64.8 12.9601ZM58.9464 44.8777C57.2803 49.2282 54.7641 53.2031 51.5448 56.5705C47.6351 60.5252 43.01 63.7015 37.9152 65.9305L36 66.8161L34.0848 65.9449C28.99 63.7159 24.3649 60.5396 20.4552 56.5849C17.2343 53.2133 14.718 49.2333 13.0536 44.8777C10.8 38.9881 9.7848 29.9521 10.0008 17.2801L10.0512 14.0401L36 5.11927L61.92 14.0113L61.9704 17.2513C62.2152 29.9521 61.2 38.9881 58.9464 44.8777Z" fill="#AAA8B8"/>
        <path d="M57.5996 17.9982C57.5964 17.7009 57.5013 17.4119 57.3273 17.1708C57.1532 16.9297 56.9088 16.7484 56.6276 16.6518L36.4676 9.73983C36.1638 9.63881 35.8355 9.63881 35.5316 9.73983L15.3716 16.6518C15.0904 16.7484 14.846 16.9297 14.672 17.1708C14.498 17.4119 14.4028 17.7009 14.3996 17.9982V18.135C14.2052 29.5542 15.1196 38.2518 17.0708 43.2918C18.4978 47.0271 20.6569 50.4395 23.4212 53.3286C26.8293 56.7928 30.866 59.576 35.3156 61.5294L35.402 61.5654C35.5878 61.6571 35.7925 61.704 35.9996 61.7022C36.2058 61.7023 36.4096 61.6581 36.5972 61.5726L36.6836 61.5294C41.136 59.5862 45.1776 56.8128 48.5924 53.3574C51.3568 50.4683 53.5158 47.0559 54.9428 43.3206C56.8796 38.2806 57.8228 29.583 57.614 18.171L57.5996 17.9982ZM52.2356 42.2622C50.9384 45.6393 48.9801 48.7236 46.4756 51.3342C43.4637 54.4023 39.9125 56.8894 35.9996 58.671C32.0763 56.9018 28.5127 54.4244 25.4876 51.363C22.9832 48.7524 21.0249 45.6681 19.7276 42.291C17.9996 37.7118 17.1212 29.7054 17.2796 19.0782L35.9996 12.6558L54.7196 19.0782C54.878 29.6982 53.9996 37.7118 52.25 42.291L52.2356 42.2622Z" fill="#AAA8B8"/>
        <path d="M42.7605 29.0392L32.4933 39.3064L29.2389 36.052C29.1051 35.9182 28.9463 35.8121 28.7715 35.7397C28.5967 35.6673 28.4093 35.63 28.2201 35.63C28.0309 35.63 27.8435 35.6673 27.6687 35.7397C27.4939 35.8121 27.3351 35.9182 27.2013 36.052C27.0675 36.1858 26.9614 36.3446 26.889 36.5194C26.8166 36.6942 26.7793 36.8816 26.7793 37.0708C26.7793 37.26 26.8166 37.4474 26.889 37.6222C26.9614 37.797 27.0675 37.9558 27.2013 38.0896L31.4709 42.3592C31.6049 42.4939 31.7642 42.6009 31.9396 42.6738C32.1151 42.7467 32.3033 42.7841 32.4933 42.784C32.8746 42.7824 33.2397 42.6296 33.5085 42.3592L44.7981 31.0768C44.9319 30.943 45.038 30.7842 45.1104 30.6094C45.1828 30.4346 45.2201 30.2472 45.2201 30.058C45.2201 29.8688 45.1828 29.6814 45.1104 29.5066C45.038 29.3318 44.9319 29.173 44.7981 29.0392C44.6643 28.9054 44.5055 28.7993 44.3307 28.7269C44.1559 28.6545 43.9685 28.6172 43.7793 28.6172C43.5901 28.6172 43.4027 28.6545 43.2279 28.7269C43.0531 28.7993 42.8943 28.9054 42.7605 29.0392Z" fill="#AAA8B8"/>
    </g>
</svg>
