<svg xmlns="http://www.w3.org/2000/svg" width="73" height="72" viewBox="0 0 73 72" fill="none">
    <g opacity="0.5" clip-path="url(#clip0_3694_66256)">
        <path d="M71.5679 34.9032H65.4766C68.0089 29.1541 67.7352 24.5001 66.777 21.3519C65.1344 15.7397 59.5907 9.64844 51.3777 9.64844C49.1876 9.64844 46.9975 10.0591 44.739 10.8804C40.8378 12.3176 38.2371 13.8918 37.0736 14.7131C35.9101 13.8918 33.3777 12.3176 29.4082 10.8804C27.1496 10.0591 24.8911 9.64844 22.7694 9.64844C14.5565 9.64844 9.01273 15.7397 7.37015 21.3519C6.41197 24.7055 6.06977 29.7701 9.2865 36.1351H1.89486C1.27889 36.1351 0.799805 36.6142 0.799805 37.2302C0.799805 37.8462 1.27889 38.3252 1.89486 38.3252H10.5869C10.9291 38.9412 11.3397 39.5572 11.8188 40.1732C18.9367 50.4393 34.4044 61.5952 37.2104 62.2796V62.3481C37.2104 62.3481 37.2789 62.3481 37.3473 62.2796H37.5527V62.2112C39.9481 61.0477 54.7998 51.4659 62.6021 40.1047C63.3549 39.0781 63.9709 38.0515 64.5184 37.0249H71.7047C72.3207 37.0249 72.7998 36.5458 72.7998 35.9298C72.7998 35.3138 72.1838 34.9032 71.5679 34.9032ZM60.6173 38.9412C53.3625 49.5496 40.0165 58.1047 37.142 59.9526C34.199 58.1047 20.9215 49.4811 13.5983 38.9412L13.1876 38.3252H23.2485C23.6591 38.3252 24.0698 38.1199 24.2751 37.7093L28.8606 28.6751L36.0469 47.0857C36.1838 47.4963 36.6629 47.7701 37.0736 47.7701H37.142C37.6211 47.7701 38.0317 47.4279 38.1686 46.9488L44.4652 25.3899L47.8188 36.272C47.9557 36.6827 48.2979 36.9564 48.7085 37.0249C49.1192 37.0933 49.5298 36.888 49.8036 36.5458L52.4728 32.6446L54.7314 36.4773C54.9367 36.8195 55.2789 37.0249 55.6895 37.0249H61.8492C61.4386 37.7093 61.0279 38.3252 60.6173 38.9412ZM63.0812 34.9032H56.3739L53.5679 30.1123C53.3625 29.7701 53.0203 29.5648 52.6097 29.5648C52.199 29.5648 51.8568 29.7017 51.6515 30.0439L49.3245 33.4659L45.5603 21.215C45.4234 20.7359 44.9443 20.4621 44.4652 20.3937C43.9861 20.3937 43.507 20.7359 43.3701 21.215L37.0051 43.1846L30.0926 25.5268C29.9557 25.1161 29.545 24.8424 29.1344 24.8424C28.6553 24.8424 28.3131 25.0477 28.1078 25.4583L22.7009 36.0667H11.8188C9.08117 31.0705 8.32832 26.2796 9.56026 21.9678C10.9975 17.1085 15.72 11.907 22.8378 11.907C24.7542 11.907 26.739 12.3176 28.7238 13.002C33.72 14.85 36.3892 16.9716 36.4576 16.9716C36.8682 17.3138 37.4158 17.3138 37.8264 16.9716C37.8264 16.9716 40.4956 14.85 45.5603 13.002C47.545 12.2492 49.5298 11.907 51.4462 11.907C58.4956 11.907 63.2865 17.1085 64.7238 21.9678C65.8873 25.9374 65.2713 30.3176 63.0812 34.9032Z" fill="#AAA8B8"/>
    </g>
    <defs>
        <clipPath id="clip0_3694_66256">
            <rect width="72" height="72" fill="white" transform="translate(0.799805)"/>
        </clipPath>
    </defs>
</svg>
