<svg xmlns="http://www.w3.org/2000/svg" width="73" height="72" viewBox="0 0 73 72" fill="none">
    <g opacity="0.5" clip-path="url(#clip0_3694_66219)">
        <path d="M54.0288 42.9619C52.5054 43.8415 50.7554 44.2495 49 44.1345C47.2447 44.0194 45.5629 43.3864 44.1673 42.3156C42.7718 41.2447 41.7251 39.784 41.1596 38.1183C40.5942 36.4526 40.5354 34.6566 40.9907 32.9574C41.446 31.2583 42.3949 29.7323 43.7174 28.5724C45.04 27.4126 46.6768 26.671 48.4208 26.4413C50.1649 26.2117 51.9378 26.5045 53.5155 27.2825C55.0932 28.0605 56.4047 29.2889 57.2843 30.8123C58.4637 32.8552 58.7833 35.2829 58.1728 37.5614C57.5623 39.8398 56.0716 41.7825 54.0288 42.9619ZM46.1229 29.2685C44.938 29.9526 43.9826 30.9727 43.3775 32.1998C42.7724 33.4269 42.5447 34.8058 42.7233 36.1623C42.9019 37.5188 43.4787 38.7919 44.3808 39.8205C45.2829 40.8492 46.4698 41.5872 47.7913 41.9413C49.1129 42.2954 50.5098 42.2497 51.8053 41.8099C53.1009 41.3701 54.237 40.556 55.0699 39.4706C55.9028 38.3851 56.3951 37.0771 56.4846 35.7118C56.5741 34.3466 56.2567 32.9854 55.5726 31.8006C54.6553 30.2117 53.1443 29.0523 51.3722 28.5774C49.6 28.1026 47.7118 28.3512 46.1229 29.2685ZM69.1691 29.6562C68.2828 30.1714 67.256 30.3927 66.2362 30.2883L66.4456 28.3188C67.0491 28.3822 67.6571 28.2511 68.1808 27.9445C68.8618 27.5514 69.3587 26.9038 69.5622 26.1443C69.7657 25.3848 69.6592 24.5756 69.266 23.8947C68.8729 23.2137 68.2253 22.7168 67.4658 22.5133C66.7063 22.3098 65.8971 22.4164 65.2161 22.8095C64.6888 23.1098 64.2712 23.5708 64.0244 24.1252L62.2141 23.3218C62.6335 22.3863 63.3385 21.6078 64.2279 21.0978C65.3628 20.4426 66.7115 20.265 67.9774 20.6042C69.2432 20.9434 70.3224 21.7715 70.9777 22.9064C71.6329 24.0413 71.8105 25.3901 71.4713 26.6559C71.1321 27.9217 70.304 29.001 69.1691 29.6562Z" fill="#AAA8B8"/>
        <path d="M58.9701 51.521C54.7638 53.9536 49.7784 54.6608 45.0616 53.494C40.3448 52.3273 36.2639 49.3775 33.6767 45.2646L22.6811 47.3679L22.3513 45.4131L34.0375 43.162C34.2342 43.1355 34.4344 43.1688 34.6118 43.2577C34.7893 43.3465 34.936 43.4868 35.0326 43.6601C37.2604 47.5188 40.9299 50.3345 45.2337 51.4877C49.5375 52.6409 54.1232 52.0372 57.9819 49.8094C59.9387 48.6813 61.648 47.1702 63.0075 45.3665C64.3671 43.5627 65.3489 41.5033 65.8944 39.3114C66.4398 37.1196 66.5376 34.8402 66.182 32.6096C65.8264 30.3791 65.0247 28.2431 63.8247 26.3295C59.0804 18.7643 48.756 16.3379 40.8138 20.9234L35.191 24.1697C35.9773 25.5316 36.1903 27.1501 35.7833 28.6691C35.3763 30.1881 34.3826 31.4832 33.0207 32.2695C31.6588 33.0557 30.0403 33.2688 28.5213 32.8618C27.0023 32.4548 25.7072 31.461 24.9209 30.0991L4.38082 41.958L7.98294 48.197L18.4432 46.1745L18.8123 48.1182L7.65997 50.2663C7.45926 50.3044 7.25169 50.2793 7.06582 50.1945C6.87996 50.1097 6.72494 49.9694 6.62209 49.7929L2.17502 42.0904C2.04398 41.8634 2.00846 41.5936 2.0763 41.3405C2.14413 41.0873 2.30976 40.8715 2.53674 40.7404L24.7885 27.8933C25.0155 27.7623 25.2853 27.7268 25.5384 27.7946C25.7916 27.8624 26.0074 28.0281 26.1385 28.2551L26.6326 29.1109C27.1568 30.0188 28.0202 30.6813 29.0329 30.9527C30.0455 31.224 31.1245 31.082 32.0324 30.5578C32.9404 30.0336 33.6029 29.1702 33.8742 28.1575C34.1455 27.1449 34.0035 26.0659 33.4793 25.158L32.9852 24.3021C32.8541 24.0751 32.8186 23.8054 32.8865 23.5522C32.9543 23.2991 33.1199 23.0832 33.3469 22.9522L39.8256 19.2117C48.6835 14.0976 60.1946 16.8202 65.5018 25.2814C66.8425 27.4201 67.7381 29.8072 68.1352 32.3C68.5324 34.7928 68.4228 37.34 67.813 39.7895C67.2033 42.2389 66.106 44.5403 64.5866 46.556C63.0672 48.5717 61.157 50.2604 58.9701 51.521ZM30.0502 20.6357L31.8584 13.8872L33.7673 14.3987L31.959 21.1471L30.0502 20.6357ZM17.1441 23.9778L17.6556 22.069L24.404 23.8772L23.8917 25.7866L17.1441 23.9778ZM22.7766 16.5026L24.4882 15.5144L28.4412 22.3611L26.7295 23.3494L22.7766 16.5026Z" fill="#AAA8B8"/>
    </g>
    <defs>
        <clipPath id="clip0_3694_66219">
            <rect width="72" height="72" fill="white" transform="translate(0.399902)"/>
        </clipPath>
    </defs>
</svg>
