<svg xmlns="http://www.w3.org/2000/svg" width="25" height="24" viewBox="0 0 25 24" fill="none">
    <path fill-rule="evenodd" clip-rule="evenodd" d="M17.5619 10.5691L13.2719 17.9998C13.1006 18.297 13.0001 18.6297 12.9802 18.9723L12.8321 21.4388C12.8075 21.8485 12.8975 22.2569 13.092 22.6183C13.2864 22.9798 13.5776 23.2799 13.933 23.4851C14.2885 23.6904 14.694 23.7926 15.1042 23.7803C15.5144 23.7681 15.9131 23.6419 16.2557 23.4159L18.3178 22.0544C18.604 21.8654 18.8427 21.6123 19.014 21.3151L23.304 13.8844C23.5971 13.3768 23.6765 12.7735 23.5248 12.2073C23.3731 11.6411 23.0027 11.1584 22.4951 10.8653L20.581 9.76016C20.0734 9.46709 19.4701 9.38766 18.9039 9.53937C18.3377 9.69107 17.855 10.0615 17.5619 10.5691ZM21.2817 6.82834V3.53404C21.2817 2.65477 20.9324 1.81152 20.3106 1.18978C19.6889 0.568039 18.8456 0.21875 17.9664 0.21875H6.91539C6.03573 0.21875 5.19254 0.567961 4.57148 1.19013C4.26341 1.49777 4.01904 1.86315 3.85235 2.26535C3.68567 2.66755 3.59995 3.09867 3.6001 3.53404V19.0054C3.6001 19.8847 3.94939 20.7279 4.57112 21.3497C5.19286 21.9714 6.03612 22.3207 6.91539 22.3207H10.1644C10.4575 22.3207 10.7386 22.2043 10.9458 21.997C11.153 21.7898 11.2695 21.5087 11.2695 21.2156C11.2695 20.9225 11.153 20.6414 10.9458 20.4342C10.7386 20.2269 10.4575 20.1105 10.1644 20.1105H6.91539C6.6223 20.1105 6.34122 19.9941 6.13397 19.7868C5.92672 19.5796 5.81029 19.2985 5.81029 19.0054V3.53404C5.80986 3.3888 5.83814 3.2449 5.89352 3.11062C5.9489 2.97635 6.03029 2.85435 6.13299 2.75164C6.2357 2.64894 6.3577 2.56756 6.49197 2.51217C6.62625 2.45679 6.77014 2.42851 6.91539 2.42895H17.9664C18.2595 2.42895 18.5405 2.54538 18.7478 2.75262C18.955 2.95987 19.0715 3.24095 19.0715 3.53404V6.82834C19.0715 7.12143 19.1879 7.40252 19.3951 7.60976C19.6024 7.81701 19.8835 7.93344 20.1766 7.93344C20.4697 7.93344 20.7507 7.81701 20.958 7.60976C21.1652 7.40252 21.2817 7.12143 21.2817 6.82834ZM19.4759 11.6742L21.39 12.7793L17.1 20.21L15.0379 21.5714L15.1859 19.1049L19.4759 11.6742ZM9.12559 16.7952H11.5292C11.8223 16.7952 12.1034 16.6788 12.3106 16.4715C12.5178 16.2643 12.6343 15.9832 12.6343 15.6901C12.6343 15.397 12.5178 15.1159 12.3106 14.9087C12.1034 14.7015 11.8223 14.585 11.5292 14.585H9.12559C8.8325 14.585 8.55141 14.7015 8.34416 14.9087C8.13692 15.1159 8.02049 15.397 8.02049 15.6901C8.02049 15.9832 8.13692 16.2643 8.34416 16.4715C8.55141 16.6788 8.8325 16.7952 9.12559 16.7952ZM9.12559 12.3748H13.9328C14.2259 12.3748 14.5069 12.2584 14.7142 12.0511C14.9214 11.8439 15.0379 11.5628 15.0379 11.2697C15.0379 10.9766 14.9214 10.6956 14.7142 10.4883C14.5069 10.2811 14.2259 10.1646 13.9328 10.1646H9.12559C8.8325 10.1646 8.55141 10.2811 8.34416 10.4883C8.13692 10.6956 8.02049 10.9766 8.02049 11.2697C8.02049 11.5628 8.13692 11.8439 8.34416 12.0511C8.55141 12.2584 8.8325 12.3748 9.12559 12.3748ZM9.12559 7.95443H15.7562C16.0493 7.95443 16.3303 7.838 16.5376 7.63076C16.7448 7.42351 16.8613 7.14243 16.8613 6.84934C16.8613 6.55625 16.7448 6.27516 16.5376 6.06791C16.3303 5.86067 16.0493 5.74424 15.7562 5.74424H9.12559C8.8325 5.74424 8.55141 5.86067 8.34416 6.06791C8.13692 6.27516 8.02049 6.55625 8.02049 6.84934C8.02049 7.14243 8.13692 7.42351 8.34416 7.63076C8.55141 7.838 8.8325 7.95443 9.12559 7.95443Z" fill="#5E5E6B"/>
</svg>
