<svg xmlns="http://www.w3.org/2000/svg" width="73" height="72" viewBox="0 0 73 72" fill="none">
    <g opacity="0.5" clip-path="url(#clip0_3694_66267)">
        <path d="M36.5996 43.2123C36.4343 43.2122 36.2711 43.1757 36.1215 43.1054L1.24651 26.6973C1.05324 26.6064 0.889819 26.4624 0.775351 26.2822C0.660884 26.1019 0.600098 25.8927 0.600098 25.6792C0.600098 25.4656 0.660884 25.2565 0.775351 25.0762C0.889819 24.8959 1.05324 24.7519 1.24651 24.661L36.1215 8.24728C36.2711 8.17704 36.4344 8.14062 36.5996 8.14062C36.7649 8.14062 36.9282 8.17704 37.0778 8.24728L71.9528 24.661C72.146 24.7519 72.3094 24.8959 72.4239 25.0762C72.5384 25.2565 72.5992 25.4656 72.5992 25.6792C72.5992 25.8927 72.5384 26.1019 72.4239 26.2822C72.3094 26.4624 72.146 26.6064 71.9528 26.6973L37.0778 43.1054C36.9282 43.1757 36.7649 43.2122 36.5996 43.2123ZM4.36838 25.6792L36.5996 40.8667L68.8309 25.6792L36.5996 10.5085L4.36838 25.6792Z" fill="#AAA8B8"/>
        <path d="M14.1001 45C13.8017 45 13.5156 44.8815 13.3046 44.6705C13.0936 44.4595 12.9751 44.1734 12.9751 43.875V32.0625C12.9751 31.7641 13.0936 31.478 13.3046 31.267C13.5156 31.056 13.8017 30.9375 14.1001 30.9375C14.3985 30.9375 14.6846 31.056 14.8956 31.267C15.1066 31.478 15.2251 31.7641 15.2251 32.0625V43.875C15.2251 44.1734 15.1066 44.4595 14.8956 44.6705C14.6846 44.8815 14.3985 45 14.1001 45ZM59.1001 45C58.8017 45 58.5156 44.8815 58.3046 44.6705C58.0936 44.4595 57.9751 44.1734 57.9751 43.875V32.0625C57.9751 31.7641 58.0936 31.478 58.3046 31.267C58.5156 31.056 58.8017 30.9375 59.1001 30.9375C59.3985 30.9375 59.6846 31.056 59.8956 31.267C60.1066 31.478 60.2251 31.7641 60.2251 32.0625V43.875C60.2251 44.1734 60.1066 44.4595 59.8956 44.6705C59.6846 44.8815 59.3985 45 59.1001 45Z" fill="#AAA8B8"/>
        <path d="M36.6001 56.5481C23.8763 56.5481 12.9751 49.5788 12.9751 43.875C12.9751 43.5766 13.0936 43.2905 13.3046 43.0795C13.5156 42.8685 13.8017 42.75 14.1001 42.75C14.3985 42.75 14.6846 42.8685 14.8956 43.0795C15.1066 43.2905 15.2251 43.5766 15.2251 43.875C15.2251 47.4412 24.2251 54.2981 36.6001 54.2981C48.9751 54.2981 57.9751 47.4412 57.9751 43.875C57.9751 43.5766 58.0936 43.2905 58.3046 43.0795C58.5156 42.8685 58.8017 42.75 59.1001 42.75C59.3985 42.75 59.6846 42.8685 59.8956 43.0795C60.1066 43.2905 60.2251 43.5766 60.2251 43.875C60.2251 49.5788 49.3238 56.5481 36.6001 56.5481Z" fill="#AAA8B8"/>
        <path d="M53.4749 56.8123C53.1765 56.8123 52.8904 56.6938 52.6794 56.4828C52.4684 56.2718 52.3499 55.9857 52.3499 55.6873V34.4473L36.0993 26.3192C35.9624 26.2563 35.8395 26.1666 35.7379 26.0553C35.6364 25.944 35.5582 25.8135 35.508 25.6714C35.4579 25.5294 35.4368 25.3787 35.4459 25.2283C35.4551 25.0779 35.4944 24.9309 35.5615 24.796C35.6286 24.6611 35.7221 24.5411 35.8364 24.443C35.9508 24.3449 36.0836 24.2708 36.2272 24.225C36.3707 24.1793 36.522 24.1628 36.672 24.1766C36.822 24.1904 36.9678 24.2342 37.1005 24.3054L53.9755 32.7429C54.163 32.8361 54.3207 32.9797 54.431 33.1575C54.5413 33.3354 54.5998 33.5405 54.5999 33.7498V55.6873C54.5999 55.9857 54.4814 56.2718 54.2704 56.4828C54.0594 56.6938 53.7733 56.8123 53.4749 56.8123Z" fill="#AAA8B8"/>
        <path d="M53.4751 61.875C52.8076 61.875 52.1551 61.6771 51.6001 61.3062C51.045 60.9354 50.6125 60.4083 50.357 59.7916C50.1016 59.1749 50.0347 58.4963 50.1649 57.8416C50.2952 57.1869 50.6166 56.5855 51.0886 56.1135C51.5606 55.6415 52.162 55.3201 52.8167 55.1899C53.4714 55.0596 54.15 55.1265 54.7667 55.3819C55.3834 55.6374 55.9105 56.0699 56.2813 56.625C56.6522 57.18 56.8501 57.8325 56.8501 58.5C56.8501 59.3951 56.4945 60.2535 55.8616 60.8865C55.2286 61.5194 54.3702 61.875 53.4751 61.875ZM53.4751 57.375C53.2526 57.375 53.0351 57.441 52.8501 57.5646C52.6651 57.6882 52.5209 57.8639 52.4357 58.0695C52.3506 58.2751 52.3283 58.5013 52.3717 58.7195C52.4151 58.9377 52.5223 59.1382 52.6796 59.2955C52.8369 59.4528 53.0374 59.56 53.2556 59.6034C53.4739 59.6468 53.7001 59.6245 53.9056 59.5394C54.1112 59.4542 54.2869 59.31 54.4105 59.125C54.5341 58.94 54.6001 58.7225 54.6001 58.5C54.6001 58.2016 54.4816 57.9155 54.2706 57.7045C54.0596 57.4935 53.7735 57.375 53.4751 57.375Z" fill="#AAA8B8"/>
        <path d="M55.1618 68.6245H51.7868C51.6306 68.6251 51.4761 68.5932 51.333 68.5307C51.1899 68.4683 51.0613 68.3768 50.9555 68.262C50.8497 68.1472 50.7689 68.0116 50.7183 67.8639C50.6678 67.7161 50.6485 67.5595 50.6618 67.4039L51.2243 60.6539C51.2355 60.3555 51.3647 60.0738 51.5836 59.8708C51.8025 59.6677 52.0931 59.5599 52.3915 59.5711C52.6898 59.5823 52.9715 59.7116 53.1746 59.9304C53.3777 60.1493 53.4855 60.4399 53.4743 60.7383C53.4631 60.4399 53.5709 60.1493 53.774 59.9304C53.977 59.7116 54.2587 59.5823 54.5571 59.5711C54.8555 59.5599 55.1461 59.6677 55.365 59.8708C55.5838 60.0738 55.7131 60.3555 55.7243 60.6539L56.2868 67.4039C56.3001 67.5595 56.2808 67.7161 56.2302 67.8639C56.1797 68.0116 56.0989 68.1472 55.9931 68.262C55.8873 68.3768 55.7587 68.4683 55.6156 68.5307C55.4725 68.5932 55.3179 68.6251 55.1618 68.6245ZM53.0074 66.3745H53.9412L53.4743 60.8452C53.4715 60.8171 53.4715 60.7888 53.4743 60.7608C53.4771 60.7888 53.4771 60.8171 53.4743 60.8452L53.0074 66.3745Z" fill="#AAA8B8"/>
    </g>
    <defs>
        <clipPath id="clip0_3694_66267">
            <rect width="72" height="72" fill="white" transform="translate(0.600098)"/>
        </clipPath>
    </defs>
</svg>
