<svg xmlns="http://www.w3.org/2000/svg" width="73" height="72" viewBox="0 0 73 72" fill="none">
    <g opacity="0.5" clip-path="url(#clip0_3694_66187)">
        <path d="M59.6094 51.5803C58.9318 48.1853 56.4606 46.7943 55.0481 46.2671C55.0249 46.2586 55.0015 46.2508 54.9778 46.2437L46.0829 43.6201L43.3092 41.7444V40.0122C47.782 37.6738 50.8039 32.9918 50.8039 27.6134V27.4187C53.0999 26.9944 54.828 25.2152 54.828 23.0905C54.828 21.9368 54.318 20.8851 53.4846 20.0968V10.998C53.4846 5.94679 48.9118 2.08213 43.9063 2.96652C37.1068 -2.13001 27.3239 -0.518024 22.5796 6.7139C22.4262 6.9479 22.372 7.23324 22.4289 7.5072C22.4858 7.78116 22.6492 8.02131 22.8831 8.17485C23.1171 8.32823 23.4024 8.38242 23.6764 8.32552C23.9503 8.26861 24.1905 8.10527 24.3441 7.87138C26.7105 4.26365 30.695 2.10998 35.002 2.10998C37.939 2.10998 40.6987 3.08198 42.9831 4.92065C43.1091 5.0221 43.2568 5.0932 43.4147 5.12846C43.5726 5.16372 43.7365 5.16219 43.8937 5.12399C47.7206 4.19404 51.375 7.10371 51.375 10.998V18.8996C51.1613 18.8364 50.944 18.7859 50.7243 18.7484C50.5667 18.0531 50.1544 17.4503 49.8437 17.2078L45.4578 13.793C44.3783 12.9527 42.9866 12.83 42.06 13.2511C31.4335 17.3589 25.0648 17.3589 24.7486 17.4042C23.9554 17.4801 23.1736 17.9483 22.9211 18.7475C22.6966 18.7854 22.4774 18.8366 22.2645 18.8995C22.3233 15.4978 22.0959 14.1992 22.5687 12.0717C22.5987 11.9365 22.6019 11.7967 22.5779 11.6602C22.5539 11.5238 22.5033 11.3934 22.429 11.2765C22.3546 11.1596 22.2579 11.0586 22.1445 10.979C22.031 10.8995 21.903 10.8432 21.7678 10.8131C21.6326 10.783 21.4927 10.7798 21.3563 10.8038C21.2198 10.8277 21.0894 10.8784 20.9725 10.9527C20.8557 11.0271 20.7546 11.1238 20.6751 11.2372C20.5956 11.3507 20.5392 11.4787 20.5092 11.614C19.9536 14.1141 20.227 15.5951 20.1547 20.0963C19.3215 20.8847 18.8116 21.9363 18.8116 23.09C18.8116 25.2147 20.5397 26.9939 22.8356 27.4181V27.4291C22.8356 32.5819 25.6597 37.4502 30.2926 39.9506V41.7603L27.562 43.6069C27.3463 43.6706 18.621 46.242 18.5535 46.2668C17.141 46.7938 14.67 48.1851 13.9921 51.5804L10.9177 67.018C10.9139 67.037 10.9106 67.0562 10.9079 67.0755C10.5012 69.9434 12.0401 72 15.1847 72H26.4238C27.0065 72 27.4787 71.5278 27.4787 70.9451C27.4787 70.3623 27.0065 69.8901 26.4238 69.8901H22.6227V59.9469C22.6227 59.8084 22.5954 59.6712 22.5424 59.5432C22.4894 59.4152 22.4117 59.2989 22.3137 59.2009C22.2158 59.1029 22.0994 59.0252 21.9714 58.9722C21.8434 58.9192 21.7062 58.8919 21.5677 58.892C21.4292 58.8919 21.292 58.9192 21.164 58.9722C21.036 59.0252 20.9197 59.1029 20.8217 59.2009C20.7237 59.2989 20.646 59.4152 20.593 59.5432C20.54 59.6712 20.5127 59.8084 20.5127 59.9469V69.8901H15.1844C13.7449 69.8901 12.9669 69.4063 12.956 67.9668C12.9501 67.2492 12.9187 67.9638 16.0604 51.9933C16.5328 49.6274 18.2508 48.6391 19.2572 48.2565L27.3375 45.873L29.2716 51.293C29.6512 52.3566 30.7329 52.8604 31.7009 52.6593L35.0113 55.5636C36.0266 56.4546 37.5652 56.4621 38.5895 55.568L41.9219 52.6589C42.9167 52.866 43.9821 52.3332 44.3532 51.2929L46.2849 45.8795L54.3435 48.2565C55.3498 48.6393 57.0678 49.6273 57.5401 51.9929C60.7346 68.2311 60.6733 67.3088 60.6422 68.0777C60.5917 69.348 59.926 69.89 58.4164 69.89H53.1259V59.9469C53.1259 59.3642 52.6537 58.892 52.0709 58.892C51.4882 58.892 51.016 59.3642 51.016 59.9469V69.8901H31.347C31.2085 69.8901 31.0713 69.9174 30.9433 69.9704C30.8153 70.0234 30.699 70.1011 30.601 70.1991C30.5031 70.297 30.4254 70.4133 30.3723 70.5413C30.3193 70.6693 30.2921 70.8065 30.2921 70.9451C30.2921 71.0836 30.3193 71.2208 30.3723 71.3488C30.4254 71.4768 30.5031 71.5931 30.601 71.6911C30.699 71.7891 30.8153 71.8668 30.9433 71.9198C31.0713 71.9728 31.2085 72.0001 31.347 72H58.4165C61.0227 72 62.731 70.5661 62.7549 67.9831C62.7579 67.5732 62.8389 67.9845 59.6094 51.5803ZM50.8039 20.9267C53.3579 21.6858 53.3456 24.499 50.8039 25.2543V20.9267ZM22.8352 25.2543C20.2886 24.4975 20.2865 21.6844 22.8352 20.9267V25.2543ZM24.9451 27.4295V19.5075C24.9592 19.505 32.6716 19.279 42.8233 15.2183L42.905 15.1866C43.1098 15.12 43.6097 15.0285 44.1615 15.458L48.4864 18.8252C48.7861 19.1916 48.6941 18.9411 48.6941 27.6134C48.6941 32.305 45.985 36.3697 42.016 38.2967C41.7619 38.345 37.569 40.559 32.6736 38.7268C28.063 36.9704 24.9451 32.436 24.9451 27.4295ZM41.1992 40.9019V42.0928L38.5085 48.5234L35.1259 48.5235C34.4668 46.9544 32.2624 41.7046 32.402 42.0354V40.8717C35.3139 41.8578 38.4222 41.8118 41.1992 40.9019ZM31.2749 50.5933C31.2454 50.5919 31.3441 50.7942 29.2666 45.0012L30.8951 43.9001L33.1223 49.2233L31.2749 50.5933ZM37.2022 53.9785C37.0914 54.0749 36.9494 54.1278 36.8026 54.1277C36.6557 54.1275 36.5139 54.0742 36.4032 53.9777L33.5887 51.5086L34.7752 50.6332H38.8623L40.0365 51.5044L37.2022 53.9785ZM42.3643 50.5889C42.3455 50.6077 42.3788 50.6038 40.5031 49.2233L42.7304 43.9001L44.3587 45.0012L42.3643 50.5889Z" fill="#AAA8B8"/>
    </g>
    <defs>
        <clipPath id="clip0_3694_66187">
            <rect width="72" height="72" fill="white" transform="translate(0.799805)"/>
        </clipPath>
    </defs>
</svg>
