<svg xmlns="http://www.w3.org/2000/svg" width="73" height="72" viewBox="0 0 73 72" fill="none">
    <g opacity="0.5">
        <path d="M67.1523 40.0298V18.8314C67.1493 17.8986 66.7765 17.0051 66.1155 16.3468C65.4545 15.6886 64.5594 15.3194 63.6266 15.3203C62.6955 15.3212 61.8029 15.6914 61.1444 16.3496C60.486 17.0079 60.1155 17.9004 60.1143 18.8314V20.5662H12.2861V18.8314C12.2831 17.8986 11.9102 17.0051 11.2492 16.3468C10.5882 15.6886 9.69315 15.3194 8.76032 15.3203C7.82928 15.3212 6.93662 15.6914 6.27817 16.3496C5.61972 17.0079 5.24926 17.9004 5.24807 18.8314V40.0264C4.40922 40.4557 3.70455 41.1073 3.2111 41.9101C2.71765 42.7129 2.45442 43.6359 2.4502 44.5782V51.5746C2.4502 54.3871 4.73394 56.6764 7.53857 56.6764H64.8618C67.6676 56.6764 69.9502 54.3882 69.9502 51.5746V44.5782C69.9456 43.6364 69.6822 42.714 69.1887 41.9119C68.6953 41.1097 67.9908 40.4586 67.1523 40.0298ZM62.3643 18.8314C62.3811 18.5063 62.5221 18.2001 62.7581 17.9759C62.9941 17.7518 63.3072 17.6268 63.6328 17.6268C63.9583 17.6268 64.2714 17.7518 64.5074 17.9759C64.7435 18.2001 64.8844 18.5063 64.9012 18.8314V39.4752H62.3654L62.3643 18.8314ZM12.2861 39.4752V36.5918H60.1143V39.4752H12.2861ZM60.1143 34.3418H12.2861V29.7046H60.1143V34.3418ZM60.1143 22.8162V27.4546H12.2861V22.8162H60.1143ZM7.49807 18.8314C7.51484 18.5063 7.6558 18.2001 7.89184 17.9759C8.12788 17.7518 8.44098 17.6268 8.76651 17.6268C9.09204 17.6268 9.40514 17.7518 9.64118 17.9759C9.87721 18.2001 10.0182 18.5063 10.0349 18.8314V21.6811L10.0338 21.6923L10.0361 21.7024V28.5683L10.0338 28.5796L10.0361 28.5908V35.4556L10.0338 35.4668L10.0361 35.4781V39.4752H7.49807V18.8314ZM67.7002 51.5746C67.7011 52.3289 67.4028 53.0527 66.8707 53.5874C66.3386 54.122 65.6161 54.4238 64.8618 54.4264H7.53857C6.78427 54.4238 6.06183 54.122 5.52973 53.5874C4.99762 53.0527 4.6993 52.3289 4.7002 51.5746V44.5782C4.7002 43.3351 5.52257 42.2146 6.6937 41.8579C6.99182 41.7679 7.26745 41.7263 7.53857 41.7263H64.8618C65.1307 41.7263 65.4052 41.7691 65.6999 41.8557C66.2793 42.0382 66.7854 42.4005 67.1451 42.89C67.5047 43.3795 67.6991 43.9708 67.7002 44.5782V51.5746Z" fill="#AAA8B8"/>
    </g>
</svg>
